<svg id="visual" viewBox="0 0 900 600" width="900" height="600" xmlns="http://www.w3.org/2000/svg" xmlns:xlink="http://www.w3.org/1999/xlink" version="1.1"><path d="M0 25L37.5 26C75 27 150 29 225 29C300 29 375 27 450 33C525 39 600 53 675 57C750 61 825 55 862.5 52L900 49L900 0L862.5 0C825 0 750 0 675 0C600 0 525 0 450 0C375 0 300 0 225 0C150 0 75 0 37.5 0L0 0Z" fill="#434343"></path><path d="M0 235L37.5 227C75 219 150 203 225 189C300 175 375 163 450 163C525 163 600 175 675 189C750 203 825 219 862.5 227L900 235L900 47L862.5 50C825 53 750 59 675 55C600 51 525 37 450 31C375 25 300 27 225 27C150 27 75 25 37.5 24L0 23Z" fill="#3c3c3c"></path><path d="M0 259L37.5 253C75 247 150 235 225 223C300 211 375 199 450 200C525 201 600 215 675 232C750 249 825 269 862.5 279L900 289L900 233L862.5 225C825 217 750 201 675 187C600 173 525 161 450 161C375 161 300 173 225 187C150 201 75 217 37.5 225L0 233Z" fill="#363636"></path><path d="M0 289L37.5 281C75 273 150 257 225 244C300 231 375 221 450 221C525 221 600 231 675 247C750 263 825 285 862.5 296L900 307L900 287L862.5 277C825 267 750 247 675 230C600 213 525 199 450 198C375 197 300 209 225 221C150 233 75 245 37.5 251L0 257Z" fill="#2f2f2f"></path><path d="M0 301L37.5 296C75 291 150 281 225 272C300 263 375 255 450 254C525 253 600 259 675 271C750 283 825 301 862.5 310L900 319L900 305L862.5 294C825 283 750 261 675 245C600 229 525 219 450 219C375 219 300 229 225 242C150 255 75 271 37.5 279L0 287Z" fill="#292929"></path><path d="M0 367L37.5 362C75 357 150 347 225 336C300 325 375 313 450 305C525 297 600 293 675 303C750 313 825 337 862.5 349L900 361L900 317L862.5 308C825 299 750 281 675 269C600 257 525 251 450 252C375 253 300 261 225 270C150 279 75 289 37.5 294L0 299Z" fill="#232323"></path><path d="M0 409L37.5 412C75 415 150 421 225 419C300 417 375 407 450 394C525 381 600 365 675 365C750 365 825 381 862.5 389L900 397L900 359L862.5 347C825 335 750 311 675 301C600 291 525 295 450 303C375 311 300 323 225 334C150 345 75 355 37.5 360L0 365Z" fill="#1f1f1f"></path><path d="M0 421L37.5 425C75 429 150 437 225 439C300 441 375 437 450 424C525 411 600 389 675 386C750 383 825 399 862.5 407L900 415L900 395L862.5 387C825 379 750 363 675 363C600 363 525 379 450 392C375 405 300 415 225 417C150 419 75 413 37.5 410L0 407Z" fill="#1e1e1e"></path><path d="M0 445L37.5 453C75 461 150 477 225 481C300 485 375 477 450 461C525 445 600 421 675 418C750 415 825 433 862.5 442L900 451L900 413L862.5 405C825 397 750 381 675 384C600 387 525 409 450 422C375 435 300 439 225 437C150 435 75 427 37.5 423L0 419Z" fill="#1d1d1d"></path><path d="M0 487L37.5 492C75 497 150 507 225 511C300 515 375 513 450 499C525 485 600 459 675 456C750 453 825 473 862.5 483L900 493L900 449L862.5 440C825 431 750 413 675 416C600 419 525 443 450 459C375 475 300 483 225 479C150 475 75 459 37.5 451L0 443Z" fill="#1c1c1c"></path><path d="M0 517L37.5 522C75 527 150 537 225 541C300 545 375 543 450 527C525 511 600 481 675 479C750 477 825 503 862.5 516L900 529L900 491L862.5 481C825 471 750 451 675 454C600 457 525 483 450 497C375 511 300 513 225 509C150 505 75 495 37.5 490L0 485Z" fill="#1a1a1a"></path><path d="M0 601L37.5 601C75 601 150 601 225 601C300 601 375 601 450 601C525 601 600 601 675 601C750 601 825 601 862.5 601L900 601L900 527L862.5 514C825 501 750 475 675 477C600 479 525 509 450 525C375 541 300 543 225 539C150 535 75 525 37.5 520L0 515Z" fill="#191919"></path></svg>